<svg width="143" height="39" viewBox="0 0 143 39" fill="none" xmlns="http://www.w3.org/2000/svg">
<circle cx="19.5" cy="19.5" r="19.5" fill="#ECECEC"/>
<path d="M17.5468 29.5263V19.8948H15V16.427H17.5468V13.465C17.5468 11.1374 19.0512 9 22.5176 9C23.9211 9 24.959 9.13455 24.959 9.13455L24.8772 12.3729C24.8772 12.3729 23.8188 12.3626 22.6638 12.3626C21.4137 12.3626 21.2134 12.9387 21.2134 13.8948V16.427H24.9765L24.8128 19.8948H21.2134V29.5263H17.5468Z" fill="#31352B"/>
<circle cx="71.5" cy="19.5" r="19.5" fill="#ECECEC"/>
<path d="M81.5263 12.9809C80.7715 13.3065 79.95 13.5408 79.1039 13.6321C79.9824 13.1102 80.6402 12.2857 80.954 11.3133C80.1297 11.8037 79.2266 12.1475 78.2849 12.3296C77.8913 11.9088 77.4153 11.5736 76.8865 11.3449C76.3577 11.1161 75.7874 10.9987 75.2113 11C72.8802 11 71.0054 12.8896 71.0054 15.2084C71.0054 15.534 71.0448 15.8596 71.109 16.1729C67.6184 15.9904 64.5053 14.3228 62.4357 11.7697C62.0586 12.4138 61.8609 13.1472 61.8634 13.8936C61.8634 15.3539 62.6059 16.6416 63.7382 17.3989C63.0709 17.3726 62.4193 17.1892 61.8362 16.8636V16.9154C61.8362 18.9604 63.2818 20.6551 65.2084 21.0449C64.8466 21.1388 64.4745 21.1869 64.1008 21.1879C63.827 21.1879 63.5679 21.1608 63.3065 21.1238C63.8393 22.7914 65.3909 24.0026 67.2386 24.042C65.793 25.1743 63.9824 25.8403 62.0163 25.8403C61.6636 25.8403 61.338 25.828 61 25.7885C62.8649 26.9849 65.0776 27.6756 67.4606 27.6756C75.1965 27.6756 79.4295 21.2669 79.4295 15.7042C79.4295 15.5217 79.4295 15.3391 79.4172 15.1566C80.2362 14.5571 80.954 13.8146 81.5263 12.9809Z" fill="#31352B"/>
<circle cx="123.5" cy="19.5" r="19.5" fill="#ECECEC"/>
<path d="M123.748 16.4986C121.957 16.4986 120.496 17.9597 120.496 19.75C120.496 21.5403 121.957 23.0014 123.748 23.0014C125.538 23.0014 126.999 21.5403 126.999 19.75C126.999 17.9597 125.538 16.4986 123.748 16.4986ZM133.499 19.75C133.499 18.4036 133.511 17.0694 133.436 15.7254C133.36 14.1644 133.004 12.7789 131.863 11.6374C130.719 10.4934 129.336 10.1398 127.775 10.0641C126.428 9.98853 125.094 10.0007 123.75 10.0007C122.404 10.0007 121.069 9.98853 119.725 10.0641C118.164 10.1398 116.779 10.4959 115.637 11.6374C114.493 12.7814 114.14 14.1644 114.064 15.7254C113.989 17.0718 114.001 18.406 114.001 19.75C114.001 21.094 113.989 22.4306 114.064 23.7746C114.14 25.3356 114.496 26.7211 115.637 27.8626C116.781 29.0066 118.164 29.3602 119.725 29.4359C121.072 29.5115 122.406 29.4993 123.75 29.4993C125.096 29.4993 126.431 29.5115 127.775 29.4359C129.336 29.3602 130.721 29.0041 131.863 27.8626C133.007 26.7186 133.36 25.3356 133.436 23.7746C133.514 22.4306 133.499 21.0964 133.499 19.75ZM123.748 24.7527C120.979 24.7527 118.745 22.5184 118.745 19.75C118.745 16.9816 120.979 14.7473 123.748 14.7473C126.516 14.7473 128.75 16.9816 128.75 19.75C128.75 22.5184 126.516 24.7527 123.748 24.7527ZM128.955 15.7108C128.309 15.7108 127.787 15.1888 127.787 14.5424C127.787 13.896 128.309 13.3741 128.955 13.3741C129.602 13.3741 130.123 13.896 130.123 14.5424C130.124 14.6959 130.094 14.8479 130.035 14.9898C129.976 15.1316 129.89 15.2605 129.782 15.369C129.673 15.4775 129.544 15.5636 129.402 15.6222C129.261 15.6809 129.109 15.711 128.955 15.7108Z" fill="#31352B"/>
</svg>
